<mxfile host="app.diagrams.net" agent="Mozilla/5.0 (Windows NT 10.0; Win64; x64; rv:139.0) Gecko/20100101 Firefox/139.0" version="27.1.6" pages="2">
  <diagram name="Page-1" id="gnQ59_qfNAxgpLE1P7-v">
    <mxGraphModel dx="1429" dy="856" grid="1" gridSize="10" guides="1" tooltips="1" connect="1" arrows="1" fold="1" page="1" pageScale="1" pageWidth="3300" pageHeight="4681" math="0" shadow="0">
      <root>
        <mxCell id="0" />
        <mxCell id="1" parent="0" />
        <mxCell id="en7pM3Hq7dKchu8Cz5Mi-3" style="edgeStyle=orthogonalEdgeStyle;rounded=0;orthogonalLoop=1;jettySize=auto;html=1;exitX=1;exitY=0.5;exitDx=0;exitDy=0;entryX=0;entryY=0.5;entryDx=0;entryDy=0;" parent="1" source="en7pM3Hq7dKchu8Cz5Mi-1" target="en7pM3Hq7dKchu8Cz5Mi-2" edge="1">
          <mxGeometry relative="1" as="geometry" />
        </mxCell>
        <mxCell id="en7pM3Hq7dKchu8Cz5Mi-1" value="data&#xa;Raw EDIC Data" style="rectangle;fillColor=#fff2cc;strokeColor=#d6b656;" parent="1" name="data" vertex="1">
          <mxGeometry x="340" y="230" width="100" height="50" as="geometry" />
        </mxCell>
        <mxCell id="en7pM3Hq7dKchu8Cz5Mi-5" style="edgeStyle=orthogonalEdgeStyle;rounded=0;orthogonalLoop=1;jettySize=auto;html=1;exitX=1;exitY=0.5;exitDx=0;exitDy=0;entryX=0;entryY=0.5;entryDx=0;entryDy=0;" parent="1" source="en7pM3Hq7dKchu8Cz5Mi-2" target="en7pM3Hq7dKchu8Cz5Mi-4" edge="1">
          <mxGeometry relative="1" as="geometry" />
        </mxCell>
        <mxCell id="en7pM3Hq7dKchu8Cz5Mi-2" value="transform" style="rounded=1;whiteSpace=wrap;html=1;arcSize=50;fillColor=#f8cecc;strokeColor=#b85450;" parent="1" name="transform" vertex="1">
          <mxGeometry x="520" y="230" width="100" height="50" as="geometry" />
        </mxCell>
        <mxCell id="en7pM3Hq7dKchu8Cz5Mi-7" style="edgeStyle=orthogonalEdgeStyle;rounded=0;orthogonalLoop=1;jettySize=auto;html=1;exitX=0.5;exitY=0;exitDx=0;exitDy=0;entryX=0;entryY=0.5;entryDx=0;entryDy=0;" parent="1" source="en7pM3Hq7dKchu8Cz5Mi-4" target="en7pM3Hq7dKchu8Cz5Mi-6" edge="1">
          <mxGeometry relative="1" as="geometry" />
        </mxCell>
        <mxCell id="en7pM3Hq7dKchu8Cz5Mi-12" style="edgeStyle=orthogonalEdgeStyle;rounded=0;orthogonalLoop=1;jettySize=auto;html=1;exitX=0.5;exitY=1;exitDx=0;exitDy=0;entryX=0;entryY=0.5;entryDx=0;entryDy=0;" parent="1" source="en7pM3Hq7dKchu8Cz5Mi-4" target="en7pM3Hq7dKchu8Cz5Mi-11" edge="1">
          <mxGeometry relative="1" as="geometry" />
        </mxCell>
        <mxCell id="en7pM3Hq7dKchu8Cz5Mi-4" value="data&#xa;Cleaned Data" style="rectangle;fillColor=#fff2cc;strokeColor=#d6b656;" parent="1" name="data" vertex="1">
          <mxGeometry x="700" y="230" width="100" height="50" as="geometry" />
        </mxCell>
        <mxCell id="en7pM3Hq7dKchu8Cz5Mi-9" style="edgeStyle=orthogonalEdgeStyle;rounded=0;orthogonalLoop=1;jettySize=auto;html=1;exitX=1;exitY=0.5;exitDx=0;exitDy=0;entryX=0.5;entryY=0;entryDx=0;entryDy=0;" parent="1" source="en7pM3Hq7dKchu8Cz5Mi-6" target="en7pM3Hq7dKchu8Cz5Mi-8" edge="1">
          <mxGeometry relative="1" as="geometry" />
        </mxCell>
        <mxCell id="en7pM3Hq7dKchu8Cz5Mi-6" value="infer:deduce" style="rounded=1;whiteSpace=wrap;html=1;arcSize=50;fillColor=#bac8d3;strokeColor=#23445d;" parent="1" name="infer:deduce" vertex="1">
          <mxGeometry x="830" y="130" width="100" height="50" as="geometry" />
        </mxCell>
        <mxCell id="en7pM3Hq7dKchu8Cz5Mi-13" style="edgeStyle=orthogonalEdgeStyle;rounded=0;orthogonalLoop=1;jettySize=auto;html=1;exitX=0.5;exitY=1;exitDx=0;exitDy=0;entryX=1;entryY=0.5;entryDx=0;entryDy=0;" parent="1" source="en7pM3Hq7dKchu8Cz5Mi-8" target="en7pM3Hq7dKchu8Cz5Mi-11" edge="1">
          <mxGeometry relative="1" as="geometry" />
        </mxCell>
        <mxCell id="en7pM3Hq7dKchu8Cz5Mi-8" value="symbol&#xa;Ranked MNSI&#xa;Parameters" style="rectangle;fillColor=#dae8fc;strokeColor=#6c8ebf;" parent="1" name="symbol" vertex="1">
          <mxGeometry x="960" y="230" width="100" height="50" as="geometry" />
        </mxCell>
        <mxCell id="en7pM3Hq7dKchu8Cz5Mi-15" style="edgeStyle=orthogonalEdgeStyle;rounded=0;orthogonalLoop=1;jettySize=auto;html=1;exitX=0.5;exitY=1;exitDx=0;exitDy=0;entryX=0.5;entryY=0;entryDx=0;entryDy=0;" parent="1" source="en7pM3Hq7dKchu8Cz5Mi-11" target="en7pM3Hq7dKchu8Cz5Mi-14" edge="1">
          <mxGeometry relative="1" as="geometry" />
        </mxCell>
        <mxCell id="en7pM3Hq7dKchu8Cz5Mi-11" value="generate:train" style="rounded=1;whiteSpace=wrap;html=1;arcSize=50;fillColor=#e1d5e7;strokeColor=#9673a6;" parent="1" name="generate:train" vertex="1">
          <mxGeometry x="830" y="330" width="100" height="50" as="geometry" />
        </mxCell>
        <mxCell id="en7pM3Hq7dKchu8Cz5Mi-14" value="model:hybrid&#xa;ANFIS Model" style="shape=hexagon;perimeter=hexagonPerimeter2;fillColor=#b0e3e6;strokeColor=#0e8088;" parent="1" name="model" vertex="1">
          <mxGeometry x="820" y="460" width="120" height="50" as="geometry" />
        </mxCell>
        <mxCell id="en7pM3Hq7dKchu8Cz5Mi-34" style="edgeStyle=orthogonalEdgeStyle;rounded=0;orthogonalLoop=1;jettySize=auto;html=1;exitX=0.5;exitY=1;exitDx=0;exitDy=0;entryX=0.5;entryY=0;entryDx=0;entryDy=0;" parent="1" source="en7pM3Hq7dKchu8Cz5Mi-16" target="en7pM3Hq7dKchu8Cz5Mi-33" edge="1">
          <mxGeometry relative="1" as="geometry" />
        </mxCell>
        <mxCell id="en7pM3Hq7dKchu8Cz5Mi-16" value="generate:train" style="rounded=1;whiteSpace=wrap;html=1;arcSize=50;fillColor=#e1d5e7;strokeColor=#9673a6;" parent="1" name="generate:train" vertex="1">
          <mxGeometry x="830" y="590" width="100" height="50" as="geometry" />
        </mxCell>
        <mxCell id="en7pM3Hq7dKchu8Cz5Mi-18" value="&lt;div&gt;error&lt;/div&gt;&lt;div&gt;|&lt;/div&gt;&lt;div&gt;|&lt;/div&gt;&lt;div&gt;v&lt;/div&gt;" style="text;html=1;align=center;verticalAlign=middle;whiteSpace=wrap;rounded=0;dashed=1;fillColor=#f5f5f5;fontColor=#333333;strokeColor=#666666;strokeWidth=2;" parent="1" name="text" vertex="1">
          <mxGeometry x="865" y="510" width="30" height="80" as="geometry" />
        </mxCell>
        <mxCell id="en7pM3Hq7dKchu8Cz5Mi-24" style="edgeStyle=orthogonalEdgeStyle;rounded=0;orthogonalLoop=1;jettySize=auto;html=1;exitX=0.5;exitY=1;exitDx=0;exitDy=0;entryX=0;entryY=0.5;entryDx=0;entryDy=0;" parent="1" source="en7pM3Hq7dKchu8Cz5Mi-20" target="en7pM3Hq7dKchu8Cz5Mi-16" edge="1">
          <mxGeometry relative="1" as="geometry" />
        </mxCell>
        <mxCell id="en7pM3Hq7dKchu8Cz5Mi-20" value="symbol&#xa;DSPN Severity&#xa;Progress" style="rectangle;fillColor=#dae8fc;strokeColor=#6c8ebf;" parent="1" name="symbol" vertex="1">
          <mxGeometry x="700" y="519.93" width="100" height="50" as="geometry" />
        </mxCell>
        <mxCell id="en7pM3Hq7dKchu8Cz5Mi-22" style="edgeStyle=orthogonalEdgeStyle;rounded=0;orthogonalLoop=1;jettySize=auto;html=1;entryX=0;entryY=0.5;entryDx=0;entryDy=0;" parent="1" source="en7pM3Hq7dKchu8Cz5Mi-21" target="en7pM3Hq7dKchu8Cz5Mi-20" edge="1">
          <mxGeometry relative="1" as="geometry" />
        </mxCell>
        <mxCell id="en7pM3Hq7dKchu8Cz5Mi-21" value="infer:deduce" style="rounded=1;whiteSpace=wrap;html=1;arcSize=50;fillColor=#bac8d3;strokeColor=#23445d;" parent="1" name="infer:deduce" vertex="1">
          <mxGeometry x="520" y="519.93" width="100" height="50" as="geometry" />
        </mxCell>
        <mxCell id="en7pM3Hq7dKchu8Cz5Mi-26" style="edgeStyle=orthogonalEdgeStyle;rounded=0;orthogonalLoop=1;jettySize=auto;html=1;entryX=0;entryY=0.5;entryDx=0;entryDy=0;" parent="1" source="en7pM3Hq7dKchu8Cz5Mi-25" target="en7pM3Hq7dKchu8Cz5Mi-21" edge="1">
          <mxGeometry relative="1" as="geometry" />
        </mxCell>
        <mxCell id="en7pM3Hq7dKchu8Cz5Mi-25" value="data&#xa;Other EDIC Data" style="rectangle;fillColor=#fff2cc;strokeColor=#d6b656;" parent="1" name="data" vertex="1">
          <mxGeometry x="340" y="519.93" width="100" height="50" as="geometry" />
        </mxCell>
        <mxCell id="en7pM3Hq7dKchu8Cz5Mi-28" style="edgeStyle=orthogonalEdgeStyle;rounded=0;orthogonalLoop=1;jettySize=auto;html=1;exitX=0.5;exitY=1;exitDx=0;exitDy=0;entryX=1;entryY=0.5;entryDx=0;entryDy=0;" parent="1" source="en7pM3Hq7dKchu8Cz5Mi-27" target="en7pM3Hq7dKchu8Cz5Mi-16" edge="1">
          <mxGeometry relative="1" as="geometry" />
        </mxCell>
        <mxCell id="en7pM3Hq7dKchu8Cz5Mi-27" value="data&#xa;Selected Datas" style="rectangle;fillColor=#fff2cc;strokeColor=#d6b656;" parent="1" name="data" vertex="1">
          <mxGeometry x="960" y="519.93" width="100" height="50" as="geometry" />
        </mxCell>
        <mxCell id="en7pM3Hq7dKchu8Cz5Mi-30" style="edgeStyle=orthogonalEdgeStyle;rounded=0;orthogonalLoop=1;jettySize=auto;html=1;entryX=1;entryY=0.5;entryDx=0;entryDy=0;" parent="1" source="en7pM3Hq7dKchu8Cz5Mi-29" target="en7pM3Hq7dKchu8Cz5Mi-27" edge="1">
          <mxGeometry relative="1" as="geometry" />
        </mxCell>
        <mxCell id="en7pM3Hq7dKchu8Cz5Mi-29" value="transform" style="rounded=1;whiteSpace=wrap;html=1;arcSize=50;fillColor=#f8cecc;strokeColor=#b85450;" parent="1" name="transform" vertex="1">
          <mxGeometry x="1140" y="519.93" width="100" height="50" as="geometry" />
        </mxCell>
        <mxCell id="en7pM3Hq7dKchu8Cz5Mi-32" style="edgeStyle=orthogonalEdgeStyle;rounded=0;orthogonalLoop=1;jettySize=auto;html=1;entryX=1;entryY=0.5;entryDx=0;entryDy=0;" parent="1" source="en7pM3Hq7dKchu8Cz5Mi-31" target="en7pM3Hq7dKchu8Cz5Mi-29" edge="1">
          <mxGeometry relative="1" as="geometry" />
        </mxCell>
        <mxCell id="en7pM3Hq7dKchu8Cz5Mi-31" value="data&#xa;EMG Signals" style="rectangle;fillColor=#fff2cc;strokeColor=#d6b656;" parent="1" name="data" vertex="1">
          <mxGeometry x="1320" y="519.93" width="100" height="50" as="geometry" />
        </mxCell>
        <mxCell id="en7pM3Hq7dKchu8Cz5Mi-36" style="edgeStyle=orthogonalEdgeStyle;rounded=0;orthogonalLoop=1;jettySize=auto;html=1;exitX=0.5;exitY=1;exitDx=0;exitDy=0;entryX=0.5;entryY=0;entryDx=0;entryDy=0;" parent="1" source="en7pM3Hq7dKchu8Cz5Mi-33" target="en7pM3Hq7dKchu8Cz5Mi-35" edge="1">
          <mxGeometry relative="1" as="geometry" />
        </mxCell>
        <mxCell id="en7pM3Hq7dKchu8Cz5Mi-33" value="model:hybrid&#xa;ANFIS Model" style="shape=hexagon;perimeter=hexagonPerimeter2;fillColor=#b0e3e6;strokeColor=#0e8088;" parent="1" name="model" vertex="1">
          <mxGeometry x="820" y="720" width="120" height="50" as="geometry" />
        </mxCell>
        <mxCell id="en7pM3Hq7dKchu8Cz5Mi-40" style="edgeStyle=orthogonalEdgeStyle;rounded=0;orthogonalLoop=1;jettySize=auto;html=1;exitX=0.5;exitY=1;exitDx=0;exitDy=0;entryX=0.5;entryY=0;entryDx=0;entryDy=0;" parent="1" source="en7pM3Hq7dKchu8Cz5Mi-35" target="en7pM3Hq7dKchu8Cz5Mi-39" edge="1">
          <mxGeometry relative="1" as="geometry" />
        </mxCell>
        <mxCell id="en7pM3Hq7dKchu8Cz5Mi-35" value="infer:deduce" style="rounded=1;whiteSpace=wrap;html=1;arcSize=50;fillColor=#bac8d3;strokeColor=#23445d;" parent="1" name="infer:deduce" vertex="1">
          <mxGeometry x="830" y="850" width="100" height="50" as="geometry" />
        </mxCell>
        <mxCell id="en7pM3Hq7dKchu8Cz5Mi-38" style="edgeStyle=orthogonalEdgeStyle;rounded=0;orthogonalLoop=1;jettySize=auto;html=1;entryX=0;entryY=0.5;entryDx=0;entryDy=0;" parent="1" source="en7pM3Hq7dKchu8Cz5Mi-37" target="en7pM3Hq7dKchu8Cz5Mi-35" edge="1">
          <mxGeometry relative="1" as="geometry" />
        </mxCell>
        <mxCell id="en7pM3Hq7dKchu8Cz5Mi-37" value="data&#xa;Patient Data" style="rectangle;fillColor=#fff2cc;strokeColor=#d6b656;" parent="1" name="data" vertex="1">
          <mxGeometry x="650" y="850" width="100" height="50" as="geometry" />
        </mxCell>
        <mxCell id="en7pM3Hq7dKchu8Cz5Mi-39" value="symbol&#xa;Severity and&#xa;Treatment Plan" style="rectangle;fillColor=#dae8fc;strokeColor=#6c8ebf;" parent="1" name="symbol" vertex="1">
          <mxGeometry x="830" y="980" width="100" height="50" as="geometry" />
        </mxCell>
      </root>
    </mxGraphModel>
  </diagram>
  <diagram name="Copy of Page-1" id="POstVr1OD6XxRVhWvnuK">
    <mxGraphModel dx="1429" dy="856" grid="1" gridSize="10" guides="1" tooltips="1" connect="1" arrows="1" fold="1" page="1" pageScale="1" pageWidth="3300" pageHeight="4681" math="0" shadow="0">
      <root>
        <mxCell id="k-6E4xeZmu8ew9ISxKqr-0" />
        <mxCell id="k-6E4xeZmu8ew9ISxKqr-1" parent="k-6E4xeZmu8ew9ISxKqr-0" />
        <mxCell id="k-6E4xeZmu8ew9ISxKqr-2" style="edgeStyle=orthogonalEdgeStyle;rounded=0;orthogonalLoop=1;jettySize=auto;html=1;exitX=1;exitY=0.5;exitDx=0;exitDy=0;entryX=0;entryY=0.5;entryDx=0;entryDy=0;" edge="1" parent="k-6E4xeZmu8ew9ISxKqr-1" source="k-6E4xeZmu8ew9ISxKqr-3" target="k-6E4xeZmu8ew9ISxKqr-5">
          <mxGeometry relative="1" as="geometry" />
        </mxCell>
        <mxCell id="k-6E4xeZmu8ew9ISxKqr-3" value="data&#xa;Raw EDIC Data" style="rectangle;fillColor=#fff2cc;strokeColor=#d6b656;" name="data" vertex="1" parent="k-6E4xeZmu8ew9ISxKqr-1">
          <mxGeometry x="340" y="230" width="100" height="50" as="geometry" />
        </mxCell>
        <mxCell id="k-6E4xeZmu8ew9ISxKqr-4" style="edgeStyle=orthogonalEdgeStyle;rounded=0;orthogonalLoop=1;jettySize=auto;html=1;exitX=1;exitY=0.5;exitDx=0;exitDy=0;entryX=0;entryY=0.5;entryDx=0;entryDy=0;" edge="1" parent="k-6E4xeZmu8ew9ISxKqr-1" source="k-6E4xeZmu8ew9ISxKqr-5" target="k-6E4xeZmu8ew9ISxKqr-8">
          <mxGeometry relative="1" as="geometry" />
        </mxCell>
        <mxCell id="k-6E4xeZmu8ew9ISxKqr-5" value="transform" style="rounded=1;whiteSpace=wrap;html=1;arcSize=50;fillColor=#f8cecc;strokeColor=#b85450;" name="transform" vertex="1" parent="k-6E4xeZmu8ew9ISxKqr-1">
          <mxGeometry x="520" y="230" width="100" height="50" as="geometry" />
        </mxCell>
        <mxCell id="k-6E4xeZmu8ew9ISxKqr-6" style="edgeStyle=orthogonalEdgeStyle;rounded=0;orthogonalLoop=1;jettySize=auto;html=1;exitX=0.5;exitY=0;exitDx=0;exitDy=0;entryX=0;entryY=0.5;entryDx=0;entryDy=0;" edge="1" parent="k-6E4xeZmu8ew9ISxKqr-1" source="k-6E4xeZmu8ew9ISxKqr-8" target="k-6E4xeZmu8ew9ISxKqr-10">
          <mxGeometry relative="1" as="geometry" />
        </mxCell>
        <mxCell id="k-6E4xeZmu8ew9ISxKqr-7" style="edgeStyle=orthogonalEdgeStyle;rounded=0;orthogonalLoop=1;jettySize=auto;html=1;exitX=0.5;exitY=1;exitDx=0;exitDy=0;entryX=0;entryY=0.5;entryDx=0;entryDy=0;" edge="1" parent="k-6E4xeZmu8ew9ISxKqr-1" source="k-6E4xeZmu8ew9ISxKqr-8" target="k-6E4xeZmu8ew9ISxKqr-14">
          <mxGeometry relative="1" as="geometry" />
        </mxCell>
        <mxCell id="k-6E4xeZmu8ew9ISxKqr-8" value="data&#xa;Cleaned Data" style="rectangle;fillColor=#fff2cc;strokeColor=#d6b656;" name="data" vertex="1" parent="k-6E4xeZmu8ew9ISxKqr-1" tooltip="⚠️ Node not part of any valid pattern.">
          <mxGeometry x="700" y="230" width="100" height="50" as="geometry" />
        </mxCell>
        <mxCell id="k-6E4xeZmu8ew9ISxKqr-9" style="edgeStyle=orthogonalEdgeStyle;rounded=0;orthogonalLoop=1;jettySize=auto;html=1;exitX=1;exitY=0.5;exitDx=0;exitDy=0;entryX=0.5;entryY=0;entryDx=0;entryDy=0;" edge="1" parent="k-6E4xeZmu8ew9ISxKqr-1" source="k-6E4xeZmu8ew9ISxKqr-10" target="k-6E4xeZmu8ew9ISxKqr-12">
          <mxGeometry relative="1" as="geometry" />
        </mxCell>
        <mxCell id="k-6E4xeZmu8ew9ISxKqr-10" value="infer:deduce" style="rounded=1;whiteSpace=wrap;html=1;arcSize=50;fillColor=#bac8d3;strokeColor=#23445d;" name="infer:deduce" vertex="1" parent="k-6E4xeZmu8ew9ISxKqr-1" tooltip="⚠️ Node not part of any valid pattern.">
          <mxGeometry x="830" y="130" width="100" height="50" as="geometry" />
        </mxCell>
        <mxCell id="k-6E4xeZmu8ew9ISxKqr-11" style="edgeStyle=orthogonalEdgeStyle;rounded=0;orthogonalLoop=1;jettySize=auto;html=1;exitX=0.5;exitY=1;exitDx=0;exitDy=0;entryX=1;entryY=0.5;entryDx=0;entryDy=0;" edge="1" parent="k-6E4xeZmu8ew9ISxKqr-1" source="k-6E4xeZmu8ew9ISxKqr-12" target="k-6E4xeZmu8ew9ISxKqr-14">
          <mxGeometry relative="1" as="geometry" />
        </mxCell>
        <mxCell id="k-6E4xeZmu8ew9ISxKqr-12" value="symbol&#xa;Ranked MNSI&#xa;Parameters" style="rectangle;fillColor=#dae8fc;strokeColor=#6c8ebf;" name="symbol" vertex="1" parent="k-6E4xeZmu8ew9ISxKqr-1" tooltip="⚠️ Node not part of any valid pattern.">
          <mxGeometry x="960" y="230" width="100" height="50" as="geometry" />
        </mxCell>
        <mxCell id="k-6E4xeZmu8ew9ISxKqr-13" style="edgeStyle=orthogonalEdgeStyle;rounded=0;orthogonalLoop=1;jettySize=auto;html=1;exitX=0.5;exitY=1;exitDx=0;exitDy=0;entryX=0.5;entryY=0;entryDx=0;entryDy=0;" edge="1" parent="k-6E4xeZmu8ew9ISxKqr-1" source="k-6E4xeZmu8ew9ISxKqr-14" target="k-6E4xeZmu8ew9ISxKqr-15">
          <mxGeometry relative="1" as="geometry" />
        </mxCell>
        <mxCell id="k-6E4xeZmu8ew9ISxKqr-14" value="generate:train" style="rounded=1;whiteSpace=wrap;html=1;arcSize=50;fillColor=#e1d5e7;strokeColor=#9673a6;" name="generate:train" vertex="1" parent="k-6E4xeZmu8ew9ISxKqr-1">
          <mxGeometry x="830" y="330" width="100" height="50" as="geometry" />
        </mxCell>
        <mxCell id="X7TL2FEv3J4qkjeUDkXG-0" style="edgeStyle=orthogonalEdgeStyle;rounded=0;orthogonalLoop=1;jettySize=auto;html=1;exitX=0.5;exitY=1;exitDx=0;exitDy=0;entryX=0.5;entryY=0;entryDx=0;entryDy=0;" edge="1" parent="k-6E4xeZmu8ew9ISxKqr-1" source="k-6E4xeZmu8ew9ISxKqr-15" target="k-6E4xeZmu8ew9ISxKqr-17">
          <mxGeometry relative="1" as="geometry" />
        </mxCell>
        <mxCell id="k-6E4xeZmu8ew9ISxKqr-15" value="model:hybrid&#xa;ANFIS Model" style="shape=hexagon;perimeter=hexagonPerimeter2;fillColor=#b0e3e6;strokeColor=#0e8088;" name="model" vertex="1" parent="k-6E4xeZmu8ew9ISxKqr-1">
          <mxGeometry x="820" y="460" width="120" height="50" as="geometry" />
        </mxCell>
        <mxCell id="k-6E4xeZmu8ew9ISxKqr-16" style="edgeStyle=orthogonalEdgeStyle;rounded=0;orthogonalLoop=1;jettySize=auto;html=1;exitX=0.5;exitY=1;exitDx=0;exitDy=0;entryX=0.5;entryY=0;entryDx=0;entryDy=0;" edge="1" parent="k-6E4xeZmu8ew9ISxKqr-1" source="k-6E4xeZmu8ew9ISxKqr-17" target="k-6E4xeZmu8ew9ISxKqr-32">
          <mxGeometry relative="1" as="geometry" />
        </mxCell>
        <mxCell id="k-6E4xeZmu8ew9ISxKqr-17" value="generate:train" style="rounded=1;whiteSpace=wrap;html=1;arcSize=50;fillColor=#e1d5e7;strokeColor=#9673a6;" name="generate:train" vertex="1" parent="k-6E4xeZmu8ew9ISxKqr-1">
          <mxGeometry x="830" y="590" width="100" height="50" as="geometry" />
        </mxCell>
        <mxCell id="k-6E4xeZmu8ew9ISxKqr-19" style="edgeStyle=orthogonalEdgeStyle;rounded=0;orthogonalLoop=1;jettySize=auto;html=1;exitX=0.5;exitY=1;exitDx=0;exitDy=0;entryX=0;entryY=0.5;entryDx=0;entryDy=0;" edge="1" parent="k-6E4xeZmu8ew9ISxKqr-1" source="k-6E4xeZmu8ew9ISxKqr-20" target="k-6E4xeZmu8ew9ISxKqr-17">
          <mxGeometry relative="1" as="geometry" />
        </mxCell>
        <mxCell id="k-6E4xeZmu8ew9ISxKqr-20" value="symbol&#xa;DSPN Severity&#xa;Progress" style="rectangle;fillColor=#dae8fc;strokeColor=#6c8ebf;" name="symbol" vertex="1" parent="k-6E4xeZmu8ew9ISxKqr-1">
          <mxGeometry x="700" y="519.93" width="100" height="50" as="geometry" />
        </mxCell>
        <mxCell id="k-6E4xeZmu8ew9ISxKqr-21" style="edgeStyle=orthogonalEdgeStyle;rounded=0;orthogonalLoop=1;jettySize=auto;html=1;entryX=0;entryY=0.5;entryDx=0;entryDy=0;" edge="1" parent="k-6E4xeZmu8ew9ISxKqr-1" source="k-6E4xeZmu8ew9ISxKqr-22" target="k-6E4xeZmu8ew9ISxKqr-20">
          <mxGeometry relative="1" as="geometry" />
        </mxCell>
        <mxCell id="k-6E4xeZmu8ew9ISxKqr-22" value="infer:deduce" style="rounded=1;whiteSpace=wrap;html=1;arcSize=50;fillColor=#bac8d3;strokeColor=#23445d;" name="infer:deduce" vertex="1" parent="k-6E4xeZmu8ew9ISxKqr-1" tooltip="⚠️ Node not part of any valid pattern.">
          <mxGeometry x="520" y="519.93" width="100" height="50" as="geometry" />
        </mxCell>
        <mxCell id="k-6E4xeZmu8ew9ISxKqr-23" style="edgeStyle=orthogonalEdgeStyle;rounded=0;orthogonalLoop=1;jettySize=auto;html=1;entryX=0;entryY=0.5;entryDx=0;entryDy=0;" edge="1" parent="k-6E4xeZmu8ew9ISxKqr-1" source="k-6E4xeZmu8ew9ISxKqr-24" target="k-6E4xeZmu8ew9ISxKqr-22">
          <mxGeometry relative="1" as="geometry" />
        </mxCell>
        <mxCell id="k-6E4xeZmu8ew9ISxKqr-24" value="data&#xa;Other EDIC Data" style="rectangle;fillColor=#fff2cc;strokeColor=#d6b656;" name="data" vertex="1" parent="k-6E4xeZmu8ew9ISxKqr-1" tooltip="⚠️ Node not part of any valid pattern.">
          <mxGeometry x="340" y="519.93" width="100" height="50" as="geometry" />
        </mxCell>
        <mxCell id="k-6E4xeZmu8ew9ISxKqr-25" style="edgeStyle=orthogonalEdgeStyle;rounded=0;orthogonalLoop=1;jettySize=auto;html=1;exitX=0.5;exitY=1;exitDx=0;exitDy=0;entryX=1;entryY=0.5;entryDx=0;entryDy=0;" edge="1" parent="k-6E4xeZmu8ew9ISxKqr-1" source="k-6E4xeZmu8ew9ISxKqr-26" target="k-6E4xeZmu8ew9ISxKqr-17">
          <mxGeometry relative="1" as="geometry" />
        </mxCell>
        <mxCell id="k-6E4xeZmu8ew9ISxKqr-26" value="data&#xa;Selected Datas" style="rectangle;fillColor=#fff2cc;strokeColor=#d6b656;" name="data" vertex="1" parent="k-6E4xeZmu8ew9ISxKqr-1">
          <mxGeometry x="960" y="519.93" width="100" height="50" as="geometry" />
        </mxCell>
        <mxCell id="k-6E4xeZmu8ew9ISxKqr-27" style="edgeStyle=orthogonalEdgeStyle;rounded=0;orthogonalLoop=1;jettySize=auto;html=1;entryX=1;entryY=0.5;entryDx=0;entryDy=0;" edge="1" parent="k-6E4xeZmu8ew9ISxKqr-1" source="k-6E4xeZmu8ew9ISxKqr-28" target="k-6E4xeZmu8ew9ISxKqr-26">
          <mxGeometry relative="1" as="geometry" />
        </mxCell>
        <mxCell id="k-6E4xeZmu8ew9ISxKqr-28" value="transform" style="rounded=1;whiteSpace=wrap;html=1;arcSize=50;fillColor=#f8cecc;strokeColor=#b85450;" name="transform" vertex="1" parent="k-6E4xeZmu8ew9ISxKqr-1">
          <mxGeometry x="1140" y="519.93" width="100" height="50" as="geometry" />
        </mxCell>
        <mxCell id="k-6E4xeZmu8ew9ISxKqr-29" style="edgeStyle=orthogonalEdgeStyle;rounded=0;orthogonalLoop=1;jettySize=auto;html=1;entryX=1;entryY=0.5;entryDx=0;entryDy=0;" edge="1" parent="k-6E4xeZmu8ew9ISxKqr-1" source="k-6E4xeZmu8ew9ISxKqr-30" target="k-6E4xeZmu8ew9ISxKqr-28">
          <mxGeometry relative="1" as="geometry" />
        </mxCell>
        <mxCell id="k-6E4xeZmu8ew9ISxKqr-30" value="data&#xa;EMG Signals" style="rectangle;fillColor=#fff2cc;strokeColor=#d6b656;" name="data" vertex="1" parent="k-6E4xeZmu8ew9ISxKqr-1">
          <mxGeometry x="1320" y="519.93" width="100" height="50" as="geometry" />
        </mxCell>
        <mxCell id="k-6E4xeZmu8ew9ISxKqr-31" style="edgeStyle=orthogonalEdgeStyle;rounded=0;orthogonalLoop=1;jettySize=auto;html=1;exitX=0.5;exitY=1;exitDx=0;exitDy=0;entryX=0.5;entryY=0;entryDx=0;entryDy=0;" edge="1" parent="k-6E4xeZmu8ew9ISxKqr-1" source="k-6E4xeZmu8ew9ISxKqr-32" target="k-6E4xeZmu8ew9ISxKqr-34">
          <mxGeometry relative="1" as="geometry" />
        </mxCell>
        <mxCell id="k-6E4xeZmu8ew9ISxKqr-32" value="model:hybrid&#xa;ANFIS Model" style="shape=hexagon;perimeter=hexagonPerimeter2;fillColor=#b0e3e6;strokeColor=#0e8088;" name="model" vertex="1" parent="k-6E4xeZmu8ew9ISxKqr-1">
          <mxGeometry x="820" y="720" width="120" height="50" as="geometry" />
        </mxCell>
        <mxCell id="k-6E4xeZmu8ew9ISxKqr-33" style="edgeStyle=orthogonalEdgeStyle;rounded=0;orthogonalLoop=1;jettySize=auto;html=1;exitX=0.5;exitY=1;exitDx=0;exitDy=0;entryX=0.5;entryY=0;entryDx=0;entryDy=0;" edge="1" parent="k-6E4xeZmu8ew9ISxKqr-1" source="k-6E4xeZmu8ew9ISxKqr-34" target="k-6E4xeZmu8ew9ISxKqr-37">
          <mxGeometry relative="1" as="geometry" />
        </mxCell>
        <mxCell id="k-6E4xeZmu8ew9ISxKqr-34" value="infer:deduce" style="rounded=1;whiteSpace=wrap;html=1;arcSize=50;fillColor=#bac8d3;strokeColor=#23445d;" name="infer:deduce" vertex="1" parent="k-6E4xeZmu8ew9ISxKqr-1">
          <mxGeometry x="830" y="850" width="100" height="50" as="geometry" />
        </mxCell>
        <mxCell id="k-6E4xeZmu8ew9ISxKqr-35" style="edgeStyle=orthogonalEdgeStyle;rounded=0;orthogonalLoop=1;jettySize=auto;html=1;entryX=0;entryY=0.5;entryDx=0;entryDy=0;" edge="1" parent="k-6E4xeZmu8ew9ISxKqr-1" source="k-6E4xeZmu8ew9ISxKqr-36" target="k-6E4xeZmu8ew9ISxKqr-34">
          <mxGeometry relative="1" as="geometry" />
        </mxCell>
        <mxCell id="k-6E4xeZmu8ew9ISxKqr-36" value="data&#xa;Patient Data" style="rectangle;fillColor=#fff2cc;strokeColor=#d6b656;" name="data" vertex="1" parent="k-6E4xeZmu8ew9ISxKqr-1">
          <mxGeometry x="650" y="850" width="100" height="50" as="geometry" />
        </mxCell>
        <mxCell id="k-6E4xeZmu8ew9ISxKqr-37" value="symbol&#xa;Severity and&#xa;Treatment Plan" style="rectangle;fillColor=#dae8fc;strokeColor=#6c8ebf;" name="symbol" vertex="1" parent="k-6E4xeZmu8ew9ISxKqr-1">
          <mxGeometry x="830" y="980" width="100" height="50" as="geometry" />
        </mxCell>
        <mxCell id="K_aaUhddaGtDAaTyIPtq-0" value="&lt;div&gt;error&lt;/div&gt;" style="text;html=1;align=center;verticalAlign=middle;whiteSpace=wrap;rounded=0;dashed=1;fillColor=#f5f5f5;fontColor=#333333;strokeColor=#666666;strokeWidth=2;" name="text" vertex="1" parent="k-6E4xeZmu8ew9ISxKqr-1">
          <mxGeometry x="545" y="470" width="50" height="30" as="geometry" />
        </mxCell>
        <mxCell id="K_aaUhddaGtDAaTyIPtq-1" value="&lt;div&gt;error&lt;/div&gt;" style="text;html=1;align=center;verticalAlign=middle;whiteSpace=wrap;rounded=0;dashed=1;fillColor=#f5f5f5;fontColor=#333333;strokeColor=#666666;strokeWidth=2;" name="text" vertex="1" parent="k-6E4xeZmu8ew9ISxKqr-1">
          <mxGeometry x="855" y="190" width="50" height="30" as="geometry" />
        </mxCell>
      </root>
    </mxGraphModel>
  </diagram>
</mxfile>
